<?xml version="1.0" standalone="no"?><!DOCTYPE svg PUBLIC "-//W3C//DTD SVG 1.1//EN" "http://www.w3.org/Graphics/SVG/1.1/DTD/svg11.dtd"><svg t="1586941571171" class="icon" viewBox="0 0 1024 1024" version="1.1" xmlns="http://www.w3.org/2000/svg" p-id="3034" xmlns:xlink="http://www.w3.org/1999/xlink" width="200" height="200"><defs><style type="text/css"></style></defs><path d="M660.068 775H368.9l20.346-43h-74.209L209.153 960h74.209l14.118-31h434.008l14.118 31h74.209L713.931 732h-74.209l20.346 43z m-334.352 93l14.948-32h347.639l14.948 32H325.716z" fill="#BDCCD4" p-id="3035"></path><path d="M823 667.191V125.374C823 89.821 794.57 61 759.017 61H266.374C230.821 61 202 89.821 202 125.374v541.817C202 702.744 230.821 732 266.374 732h492.642C794.57 732 823 702.744 823 667.191z m-465.159-26.97c-28.89 0-52.309-23.42-52.309-52.309s23.42-52.309 52.309-52.309c28.89 0 52.309 23.42 52.309 52.309s-23.419 52.309-52.309 52.309z m324.554 0c-28.89 0-52.309-23.42-52.309-52.309s23.42-52.309 52.309-52.309 52.309 23.42 52.309 52.309-23.419 52.309-52.309 52.309zM735 348.626C735 384.179 706.179 413 670.626 413H356.374C320.821 413 292 384.179 292 348.626V227.374C292 191.821 320.821 163 356.374 163h314.251C706.179 163 735 191.821 735 227.374v121.252z" fill="#F45656" p-id="3036"></path><path d="M735 227.374C735 191.821 706.179 163 670.626 163H356.374C320.821 163 292 191.821 292 227.374v121.251C292 384.179 320.821 413 356.374 413h314.251C706.179 413 735 384.179 735 348.626V227.374z" fill="#BDCCD4" p-id="3037"></path></svg>