<?xml version="1.0" standalone="no"?><!DOCTYPE svg PUBLIC "-//W3C//DTD SVG 1.1//EN" "http://www.w3.org/Graphics/SVG/1.1/DTD/svg11.dtd"><svg t="1583148845341" class="icon" viewBox="0 0 1026 1024" version="1.1" xmlns="http://www.w3.org/2000/svg" p-id="3490" xmlns:xlink="http://www.w3.org/1999/xlink" width="200.390625" height="200"><defs><style type="text/css"></style></defs><path d="M352.96 116.128a287.52 287.52 0 0 1 288.736 288.768 287.552 287.552 0 0 1-288.736 288.768 287.552 287.552 0 0 1-288.8-288.768 287.52 287.52 0 0 1 288.8-288.768z m0-64.16c-192.512 0-352.96 160.416-352.96 352.928s160.448 352.96 352.96 352.96c192.48 0 352.928-160.448 352.928-352.96 0-192.544-160.448-352.928-352.928-352.928M834.208 629.536a128.768 128.768 0 0 1 128.384 128.32c0 70.56-57.824 128.288-128.384 128.288s-128.352-57.728-128.352-128.288a128.736 128.736 0 0 1 128.352-128.32z m0-64.224c-109.088 0-192.544 83.424-192.544 192.544 0 109.024 83.424 192.48 192.544 192.48s192.544-83.424 192.544-192.48c0-109.12-83.424-192.544-192.544-192.544M770.048 308.608a128.384 128.384 0 1 0 256.64 0 128.384 128.384 0 0 0-256.64 0" p-id="3491"></path><path d="M352.96 244.448c89.856 0 160.416 70.592 160.416 160.448 0 89.824-70.592 160.416-160.416 160.416-89.888 0-160.48-70.592-160.48-160.416 0-89.856 70.592-160.448 160.48-160.448z m0-64.192c-121.952 0-224.608 102.72-224.608 224.64s102.656 224.64 224.608 224.64 224.576-102.72 224.576-224.64-102.656-224.64-224.576-224.64" p-id="3492"></path><path d="M256.704 404.896a96.256 96.256 0 1 0 192.544-0.096 96.256 96.256 0 0 0-192.544 0.096M770.048 757.856c0 35.424 28.704 64.128 64.16 64.128a64.128 64.128 0 1 0 0-128.32 64.192 64.192 0 0 0-64.16 64.192" p-id="3493"></path></svg>