<?xml version="1.0" standalone="no"?><!DOCTYPE svg PUBLIC "-//W3C//DTD SVG 1.1//EN" "http://www.w3.org/Graphics/SVG/1.1/DTD/svg11.dtd"><svg t="1583198120772" class="icon" viewBox="0 0 1024 1024" version="1.1" xmlns="http://www.w3.org/2000/svg" p-id="7698" xmlns:xlink="http://www.w3.org/1999/xlink" width="200" height="200"><defs><style type="text/css"></style></defs><path d="M928.894 375.452L502.234 99.756a21.298 21.298 0 0 0-24.016 0.594L94.23 376.03a21.366 21.366 0 0 0-8.89 17.328v534.626c0 11.782 9.546 21.344 21.328 21.344H917.3c11.812 0 21.344-9.562 21.344-21.344V393.356c0-7.232-3.656-13.982-9.75-17.904z" fill="#AC92EB" p-id="7699"></path><path d="M618.652 522.666H405.33c-11.78 0-21.326 9.546-21.326 21.326v383.99c0 11.782 9.546 21.344 21.326 21.344h213.322c11.782 0 21.344-9.562 21.344-21.344V543.992c0-11.78-9.562-21.326-21.344-21.326z" fill="#A0D468" p-id="7700"></path><path d="M162.87 550.43h161.778v159.09H162.87zM705.994 549.648h167.994v159.122h-167.994z" fill="#5D9CEC" p-id="7701"></path><path d="M515.936 373.888m-77.622 0a77.622 77.622 0 1 0 155.244 0 77.622 77.622 0 1 0-155.244 0Z" fill="#5D9CEC" p-id="7702"></path><path d="M469.33 735.986c0 11.782-9.546 21.344-21.328 21.344-11.796 0-21.344-9.562-21.344-21.344s9.546-21.342 21.344-21.342c11.782 0 21.328 9.562 21.328 21.342z" fill="#434A54" p-id="7703"></path><path d="M1012.516 333.092L521.86 77.1a21.282 21.282 0 0 0-19.734 0L11.466 333.092a21.316 21.316 0 0 0-11.452 18.906v85.342c0 7.454 3.888 14.376 10.264 18.234a21.296 21.296 0 0 0 20.922 0.672L512 205.41l480.796 250.836a21.216 21.216 0 0 0 9.844 2.422 21.3 21.3 0 0 0 11.062-3.094 21.332 21.332 0 0 0 10.282-18.234v-85.342c0-7.938-4.438-15.234-11.468-18.906z" fill="#E6E9ED" p-id="7704"></path><path d="M959.986 949.326H64.014c-11.796 0-21.344-9.562-21.344-21.344s9.546-21.344 21.344-21.344h895.972c11.782 0 21.31 9.562 21.31 21.344s-9.528 21.344-21.31 21.344z" fill="#434A54" p-id="7705"></path><path d="M85.34 885.326h234.65c11.796 0 21.342-9.562 21.342-21.344 0-11.78-9.544-21.342-21.342-21.342H85.34v42.686zM938.644 842.64H703.994c-11.782 0-21.344 9.562-21.344 21.342 0 11.782 9.562 21.344 21.344 21.344h234.65V842.64z" fill="#967ADC" p-id="7706"></path><path d="M234.664 737.298c-11.782 0-21.328-9.562-21.328-21.342v-171.964c0-11.78 9.546-21.326 21.328-21.326s21.328 9.546 21.328 21.326v171.964c0 11.78-9.546 21.342-21.328 21.342z" fill="#CCD1D9" p-id="7707"></path><path d="M319.99 651.302H149.338c-11.782 0-21.342-9.532-21.342-21.312s9.56-21.344 21.342-21.344h170.652c11.796 0 21.342 9.562 21.342 21.344s-9.544 21.312-21.342 21.312zM789.304 737.298c-11.75 0-21.312-9.562-21.312-21.342v-171.964c0-11.78 9.562-21.326 21.312-21.326 11.812 0 21.342 9.546 21.342 21.326v171.964c0 11.78-9.528 21.342-21.342 21.342z" fill="#CCD1D9" p-id="7708"></path><path d="M874.644 651.302h-170.65c-11.812 0-21.344-9.532-21.344-21.312s9.532-21.344 21.344-21.344h170.65c11.782 0 21.344 9.562 21.344 21.344s-9.562 21.312-21.344 21.312zM512 479.994c-11.796 0-21.344-9.546-21.344-21.326V288c0-11.782 9.546-21.328 21.344-21.328 11.782 0 21.328 9.546 21.328 21.328v170.668c0 11.78-9.546 21.326-21.328 21.326z" fill="#CCD1D9" p-id="7709"></path><path d="M597.308 394.668h-170.65c-11.782 0-21.328-9.546-21.328-21.328 0-11.796 9.546-21.344 21.328-21.344h170.65a21.322 21.322 0 0 1 21.344 21.344 21.316 21.316 0 0 1-21.344 21.328z" fill="#CCD1D9" p-id="7710"></path><path d="M874.644 737.298h-170.65a21.332 21.332 0 0 1-21.344-21.342v-171.964c0-11.78 9.532-21.326 21.344-21.326h170.65c11.782 0 21.344 9.546 21.344 21.326v171.964c0 11.78-9.562 21.342-21.344 21.342z m-149.34-42.654h127.996v-129.308h-127.996v129.308zM319.99 737.298H149.338c-11.782 0-21.342-9.562-21.342-21.342v-171.964c0-11.78 9.56-21.326 21.342-21.326h170.652c11.796 0 21.342 9.546 21.342 21.326v171.964c0 11.78-9.544 21.342-21.342 21.342z m-149.324-42.654h127.996v-129.308H170.666v129.308zM512 479.994c-58.826 0-106.67-47.842-106.67-106.652 0-58.826 47.844-106.668 106.67-106.668 58.81 0 106.652 47.842 106.652 106.668 0 58.81-47.842 106.652-106.652 106.652z m0-170.65c-35.296 0-63.998 28.702-63.998 63.998 0 35.28 28.702 63.998 63.998 63.998 35.28 0 63.996-28.718 63.996-63.998 0-35.296-28.716-63.998-63.996-63.998z" fill="#E6E9ED" p-id="7711"></path></svg>