<?xml version="1.0" standalone="no"?><!DOCTYPE svg PUBLIC "-//W3C//DTD SVG 1.1//EN" "http://www.w3.org/Graphics/SVG/1.1/DTD/svg11.dtd"><svg t="1583131630827" class="icon" viewBox="0 0 1024 1024" version="1.1" xmlns="http://www.w3.org/2000/svg" p-id="3957" xmlns:xlink="http://www.w3.org/1999/xlink" width="200" height="200"><defs><style type="text/css"></style></defs><path d="M984.190147 458.416102 535.516572 9.742527c-12.988804-12.988804-34.044339-12.988804-47.033144 0L336.268685 161.95727l0-26.724049c0-18.369088-14.888163-33.257251-33.257251-33.257251L202.973623 101.97597c-18.369088 0-33.257251 14.888163-33.257251 33.257251l0 193.280058-129.902823 129.902823c-12.988804 12.988804-12.988804 34.044339 0 47.033144 12.988804 12.988804 34.044339 12.988804 47.033144 0L512 80.292242l425.157003 425.157003c6.492554 6.492554 15.006411 9.740679 23.516572 9.740679s17.020322-3.248125 23.516572-9.740679C997.178951 492.460441 997.178951 471.404906 984.190147 458.416102zM236.230874 168.486777 269.754183 168.486777l0 59.9813-33.527004 33.527004L236.227178 168.486777z" p-id="3958"></path><path d="M535.516572 173.892928c-12.988804-12.988804-34.044339-12.988804-47.033144 0L118.559329 543.817027c-6.237582 6.237582-9.740679 14.69601-9.740679 23.516572l0 423.40915c0 18.369088 14.888163 33.257251 33.257251 33.257251l271.116806 0c18.369088 0 33.257251-14.888163 33.257251-33.257251l0-206.291033 131.103779 0 0 206.291033c0 18.369088 14.888163 33.257251 33.257251 33.257251l271.113111 0c18.369088 0 33.257251-14.888163 33.257251-33.257251L915.181351 567.333599c0-8.820562-3.503097-17.27899-9.740679-23.516572L535.516572 173.892928zM848.666848 957.485498l-204.598609 0 0-206.291033c0-18.369088-14.888163-33.257251-33.257251-33.257251l-197.618281 0c-18.369088 0-33.257251 14.888163-33.257251 33.257251l0 206.291033L175.333152 957.485498 175.333152 581.109492l336.666848-336.666848 336.666848 336.666848L848.666848 957.485498z" p-id="3959"></path></svg>