<?xml version="1.0" standalone="no"?><!DOCTYPE svg PUBLIC "-//W3C//DTD SVG 1.1//EN" "http://www.w3.org/Graphics/SVG/1.1/DTD/svg11.dtd"><svg t="1585030684622" class="icon" viewBox="0 0 1024 1024" version="1.1" xmlns="http://www.w3.org/2000/svg" p-id="2663" xmlns:xlink="http://www.w3.org/1999/xlink" width="200" height="200"><defs><style type="text/css"></style></defs><path d="M282.892999 209.466686c-28.118408 0-50.906413 22.804379-50.909483 50.945299 0 28.139897 22.791076 50.944276 50.909483 50.944276 28.116361 0 50.904367-22.804379 50.904367-50.944276C333.797365 232.271064 311.00936 209.466686 282.892999 209.466686z" p-id="2664"></path><path d="M863.229386 229.842759 435.614286 229.842759c-11.258415 0-20.363793 9.124821-20.36277 20.37812l0 20.376073c0 11.253298 9.105379 20.38119 20.36277 20.38119l427.615101 0c11.257391 0 20.363793-9.127891 20.363793-20.38119l0-20.376073C883.59318 238.96758 874.486778 229.842759 863.229386 229.842759z" p-id="2665"></path><path d="M282.892999 461.056748c-28.118408 0-50.906413 22.804379-50.909483 50.948369 0 28.136827 22.791076 50.938136 50.909483 50.938136 28.116361 0 50.904367-22.801309 50.904367-50.938136C333.797365 483.861126 311.00936 461.056748 282.892999 461.056748z" p-id="2666"></path><path d="M863.229386 481.431797 435.614286 481.431797c-11.258415 0-20.363793 9.128915-20.36277 20.379143l0 20.37812c0 11.266601 9.105379 20.382213 20.36277 20.382213l427.615101 0c11.257391 0 20.363793-9.116635 20.363793-20.382213l0-20.37812C883.59318 490.559689 874.486778 481.431797 863.229386 481.431797z" p-id="2667"></path><path d="M282.892999 712.64374c-28.118408 0-50.909483 22.807449-50.909483 50.944276 0 28.139897 22.791076 50.944276 50.909483 50.944276 28.116361 0 50.904367-22.804379 50.904367-50.944276C333.797365 735.451188 311.00936 712.64374 282.892999 712.64374z" p-id="2668"></path><path d="M863.229386 733.021859 435.614286 733.021859c-11.258415 0-20.363793 9.116635-20.36277 20.379143l0 20.37812c0 11.266601 9.105379 20.379143 20.36277 20.379143l427.615101 0c11.257391 0 20.363793-9.113565 20.363793-20.379143l0-20.37812C883.59318 742.137471 874.486778 733.021859 863.229386 733.021859z" p-id="2669"></path></svg>