<?xml version="1.0" standalone="no"?><!DOCTYPE svg PUBLIC "-//W3C//DTD SVG 1.1//EN" "http://www.w3.org/Graphics/SVG/1.1/DTD/svg11.dtd"><svg t="1583198362663" class="icon" viewBox="0 0 1024 1024" version="1.1" xmlns="http://www.w3.org/2000/svg" p-id="11994" xmlns:xlink="http://www.w3.org/1999/xlink" width="200" height="200"><defs><style type="text/css"></style></defs><path d="M677.59104 293.376h-320l-8.33024-7.168c-8.97024-7.71072-88.3712-76.76416-114.04288-128.21504-15.60576-31.26784-9.216-53.50912-1.1008-66.65728 19.23584-31.18592 62.75072-35.84 86.97856-35.84 44.9792 0 53.43232-6.784 63.22688-14.62272a103.0656 103.0656 0 0 1 34.20672-19.53792c47.91296-15.99488 70.9376 1.41824 112.74752 33.01888L540.672 61.44c28.5696 21.504 47.50848 11.6736 49.5616 10.46528a422.48192 422.48192 0 0 0 42.2144-31.488l3.1744-2.7648c60.2624-45.33248 94.12096-6.272 116.5056 19.53792 5.39648 6.22592 10.97728 12.66176 17.21344 18.90816 22.71744 22.75328 29.99808 50.99008 20.52096 79.49312a92.99968 92.99968 0 0 1-17.2288 30.31552c-16.42496 27.7504-69.7344 82.08384-86.3744 98.74944zM379.75552 233.89696h273.16736c30.5152-31.16032 63.44192-67.7376 68.92032-78.71488l2.14528-4.31104 3.40992-3.41504c14.1568-15.12448 3.50208-25.80992 0-29.31712-7.68-7.71072-14.25408-15.27296-20.03968-21.92896-6.46656-7.45472-16.25088-18.73408-20.08064-19.85024a36.39808 36.39808 0 0 0-14.6432 7.82848 496.2304 496.2304 0 0 1-50.22208 37.66784c-19.70176 13.17376-66.59584 25.28768-117.34016-12.84608l-9.52832-7.168c-39.936-30.208-40.96-29.83936-58.23488-24.064a45.568 45.568 0 0 0-15.90272 9.5488c-19.54816 15.6672-39.3472 27.648-100.29568 27.648-20.81792 0-32.768 4.6336-36.02944 7.26016a29.9008 29.9008 0 0 0 3.22048 9.17504C303.72352 162.304 353.7152 210.5856 379.75552 233.89696zM581.32992 1008.64c-123.02336 0-274.67776-1.56672-284.2624-1.65888l-1.32608-0.04608c-3.91168-0.20992-96.7936-6.73792-177.60256-132.52608l-1.5872-2.80064C94.72 827.82208 69.632 760.32 103.936 680.07936 142.11584 590.848 287.744 433.42848 335.73888 385.3312l8.704-8.704h332.04736l8.38144 7.3728c7.26528 6.38976 178.49856 158.1824 234.26048 304.67072 23.73632 62.336 23.7824 123.35104 0.12288 167.38304-34.65216 69.46816-103.88992 146.2272-193.0752 150.8864-24.3968 1.26976-80.73728 1.69984-144.84992 1.69984z m-282.46528-61.11744c22.66624 0.23552 356.864 3.55328 424.22784 0.0256 63.7952-3.32288 117.1712-66.1248 143.49824-118.89152 15.66208-29.184 14.41792-73.27744-2.90816-118.784-44.08832-115.83488-175.70816-242.29376-209.82272-273.78688H369.11104C309.67808 496.98304 188.57472 633.16992 158.4896 703.488c-19.072 44.59008-15.96928 86.5536 10.4192 140.06272C229.44256 936.96 291.7376 946.688 298.86464 947.52256z" fill="#074D9C" p-id="11995"></path><path d="M638.55104 530.06336L573.952 668.57984h57.68192v56.70912h-81.68448l-6.45632 13.01504v16.27136h88.13568v56.704h-88.13568v61.35808H468.2752v-61.35808h-88.576v-56.704h88.576V738.304l-5.07904-13.01504H379.6736v-56.70912h66.90816L382.464 530.06336h77.50144l49.83808 134.79936h0.9216l51.6864-134.79936h76.13952z" fill="#F8B62D" p-id="11996"></path></svg>