<?xml version="1.0" standalone="no"?><!DOCTYPE svg PUBLIC "-//W3C//DTD SVG 1.1//EN" "http://www.w3.org/Graphics/SVG/1.1/DTD/svg11.dtd"><svg t="1585034794746" class="icon" viewBox="0 0 1024 1024" version="1.1" xmlns="http://www.w3.org/2000/svg" p-id="2737" xmlns:xlink="http://www.w3.org/1999/xlink" width="200" height="200"><defs><style type="text/css"></style></defs><path d="M757.372928 734.871552l260.227072 218.35776a0.512 0.512 0 0 1 0.063488 0.720896l-38.887424 46.343168a0.512 0.512 0 0 1-0.720896 0.063488L713.900032 778.704896c-75.71456 66.17088-174.798848 106.26048-283.246592 106.26048C192.809984 884.9664 0 692.13184 0 454.259712 0 216.38656 192.809984 23.552 430.65344 23.552s430.65344 192.83456 430.65344 430.706688c0 107.191296-39.15264 205.236224-103.933952 280.612864z m-326.719488 88.56576c203.866112 0 369.13152-165.286912 369.13152-369.178624 0-203.890688-165.265408-369.1776-369.13152-369.1776-203.866112 0-369.13152 165.286912-369.13152 369.1776 0 203.891712 165.265408 369.1776 369.13152 369.1776z" p-id="2738"></path></svg>