<?xml version="1.0" standalone="no"?><!DOCTYPE svg PUBLIC "-//W3C//DTD SVG 1.1//EN" "http://www.w3.org/Graphics/SVG/1.1/DTD/svg11.dtd"><svg t="1583131699932" class="icon" viewBox="0 0 1024 1024" version="1.1" xmlns="http://www.w3.org/2000/svg" p-id="6052" xmlns:xlink="http://www.w3.org/1999/xlink" width="200" height="200"><defs><style type="text/css"></style></defs><path d="M108.519579 947.071756l47.623622-231.96602 54.772765-21.169266 201.801623 253.135285L108.519579 947.071756zM661.124109 446.151302c-15.244761 17.69765-33.636012 32.212686-54.23089 42.522769 56.672942 2.629902 87.465914 6.202667 139.168052 6.92878l82.574585 0 60.133719 292.710252c-88.791703-32.122374-191.733578-77.116094-251.784209-154.568151-25.565681-23.871417-37.479715-34.015325-63.146546-54.509052l2.106089 53.107401c15.472349 15.161674 16.54165 20.98864 34.069512 37.86264 17.607338 19.872377 40.264954 45.383871 75.869781 70.068101l-276.002427 131.654046-155.323164-194.901743 150.486023-58.052918c33.318112-19.453327 85.984788-38.491216 102.577013-44.448233l28.582121-50.430537c-48.555648 12.744909-106.789191 35.528964-159.325817 57.948155l-165.647696 63.981034-2.210852 0.830876-42.212093 16.332124 34.409088-167.583998 114.256234 0c66.061836-4.537303 38.231116 8.362944 116.12751-0.570775l0-24.604756c-45.774021-35.789064-81.35356-21.967629-140.808128-19.518352L183.323672 450.908968c-10.483483-0.184238-19.94824 7.167205-22.159091 17.827701l0.050575 0.039738-46.164171 224.896352-0.075863 0.567163-0.13005 0.498525-55.11234 268.405334-0.885063 6.267692c0 12.351147 9.98857 22.365004 22.368616 22.365004l867.16681 0 4.761278-0.466013c12.116334-2.499852 19.91934-14.27661 17.4231-26.425457l-0.025288 0.054188-30.247485-147.025245 0-0.10115-71.29274-347.266267c-1.347463-11.079546-10.73997-19.633952-22.184379-19.633952l-76.335793 0L661.124109 446.151302zM469.802357 947.071756l-31.313173-39.296804 292.825852-139.61239c39.773654 21.790616 93.318168 45.362196 167.909123 71.108502l22.133804 107.804304L469.802357 947.075369z" p-id="6053"></path><path d="M518.98658 131.542059c99.116235 0 179.501644 80.392634 179.501644 179.512481 0 99.090948-80.389021 179.483581-179.501644 179.483581-99.09456 0-179.487194-80.389021-179.487194-179.483581C339.499386 211.934693 419.89202 131.542059 518.98658 131.542059M518.98658 18.965639c-163.205645 0-296.004854 133.070147-296.004854 296.626205 0 126.152205 80.522684 238.623862 198.080745 279.871417l56.907754 88.896465c8.948169 13.994835 24.39523 22.473379 41.016355 22.473379 16.617512 0 32.068186-8.478544 41.012743-22.473379l56.907754-88.896465c117.532774-41.247555 198.077133-153.719213 198.077133-279.871417C814.984209 152.035786 682.2139 18.965639 518.98658 18.965639z" p-id="6054"></path></svg>