<?xml version="1.0" standalone="no"?><!DOCTYPE svg PUBLIC "-//W3C//DTD SVG 1.1//EN" "http://www.w3.org/Graphics/SVG/1.1/DTD/svg11.dtd"><svg t="1583376191981" class="icon" viewBox="0 0 1024 1024" version="1.1" xmlns="http://www.w3.org/2000/svg" p-id="2114" xmlns:xlink="http://www.w3.org/1999/xlink" width="200" height="200"><defs><style type="text/css"></style></defs><path d="M569.1 416.4m-263.9 0a263.9 263.9 0 1 0 527.8 0 263.9 263.9 0 1 0-527.8 0Z" p-id="2115"></path><path d="M216.8 485.3c-90 22.6-156.6 104-156.8 200.9-0.2 112.7 93.6 207.1 206.3 207.8 91.8 0.5 169.8-58.5 197.7-140.7 6.9-20.4-3.4-42.7-23.6-50.3-84.6-31.8-150.3-102.4-175.3-190.1-5.8-20.8-27.4-32.9-48.3-27.6z" p-id="2116"></path><path d="M208.5 204.5m-84 0a84 84 0 1 0 168 0 84 84 0 1 0-168 0Z" p-id="2117"></path><path d="M819.8 676.3c-81.2-0.7-147.1 65.3-146.5 146.5 0.7 79.1 64.8 143.3 143.9 143.9 81.2 0.7 147.1-65.3 146.5-146.5-0.7-79.1-64.8-143.2-143.9-143.9z" p-id="2118"></path></svg>