<?xml version="1.0" standalone="no"?><!DOCTYPE svg PUBLIC "-//W3C//DTD SVG 1.1//EN" "http://www.w3.org/Graphics/SVG/1.1/DTD/svg11.dtd"><svg t="1583376159008" class="icon" viewBox="0 0 1024 1024" version="1.1" xmlns="http://www.w3.org/2000/svg" p-id="1865" xmlns:xlink="http://www.w3.org/1999/xlink" width="200" height="200"><defs><style type="text/css"></style></defs><path d="M781.981888 1014.033538C649.277769 945.497049 431.312619 990.61918 298.608501 972.93895 165.904382 955.25872 80.23377 832.725854 35.111639 706.301971-80.32183 383.00634 113.136746 295.287826 270.483965 302.387223 427.899447 309.691411 362.093496 148.180122 582.720919 27.558632 803.348343-93.062859 862.874059 217.126192 838.367485 287.574057 813.792648 358.021923 796.863316 425.32967 963.357836 601.858915 1129.852355 778.456422 914.686006 1082.706555 781.981888 1014.033538ZM891.408175 606.432565C745.66574 458.778754 743.413046 396.044657 768.397464 329.692597 789.900446 272.214785 777.886081 13.22331 589.478999 113.229243 401.071917 213.30344 457.730569 374.746465 324.207289 370.650659 190.615746 366.554852 7.601475 440.279363 102.28286 701.250477 139.281642 803.236049 225.976205 884.810855 338.474347 897.644381 450.972489 910.54617 634.259813 878.735409 746.211847 932.868314 858.163882 987.069481 1031.0069 747.874403 891.408175 606.432565ZM650.09693 792.51869C581.014333 766.646848 565.723324 679.337914 586.270618 607.388253 606.886175 535.302065 543.947288 435.773976 514.730537 379.866222 485.58205 323.753678 553.708959 197.671113 626.068201 178.352561 743.549573 146.95138 684.365175 331.7405 689.280142 455.092528 694.331636 578.444556 870.314773 658.79062 868.47166 734.28998 866.628548 809.789339 719.111263 818.458796 650.09693 792.51869ZM471.997627 693.058865C411.379696 748.01093 334.105487 776.886363 255.943853 750.604941 177.918747 724.255255 125.902009 596.124786 186.519939 541.991882 310.076758 431.541643 323.04681 547.179903 423.803641 498.098493 524.492209 449.085346 532.547294 638.106799 471.997627 693.058865Z" p-id="1866"></path></svg>